<svg width="512" height="512" viewBox="0 0 512 512" fill="none" xmlns="http://www.w3.org/2000/svg">
  <defs>
    <linearGradient id="emeraldGradient" x1="0%" y1="0%" x2="100%" y2="100%">
      <stop offset="0%" style="stop-color:#10B981;stop-opacity:1" />
      <stop offset="100%" style="stop-color:#047857;stop-opacity:1" />
    </linearGradient>
    <linearGradient id="goldGradient" x1="0%" y1="0%" x2="100%" y2="100%">
      <stop offset="0%" style="stop-color:#FCD34D;stop-opacity:1" />
      <stop offset="100%" style="stop-color:#F59E0B;stop-opacity:1" />
    </linearGradient>
  </defs>
  
  <!-- Shield Background -->
  <path d="M256 32C170 32 100 80 100 80V250C100 360 256 480 256 480C256 480 412 360 412 250V80C412 80 342 32 256 32Z" fill="url(#emeraldGradient)" stroke="#064E3B" stroke-width="10"/>
  
  <!-- Hedgehog Spines / Sunburst Motif -->
  <path d="M256 120L280 180L340 190L290 230L310 290L256 260L202 290L222 230L172 190L232 180L256 120Z" fill="url(#goldGradient)" />
  
  <!-- H Initial -->
  <path d="M216 200V320M296 200V320M216 260H296" stroke="white" stroke-width="24" stroke-linecap="round" />
</svg>
